<svg width="27" height="26" viewBox="0 0 27 26" fill="none" xmlns="http://www.w3.org/2000/svg">
<path fill-rule="evenodd" clip-rule="evenodd" d="M21.4826 0H4.69121C2.14329 0 0.0869141 2.1093 0.0869141 4.7228V21.2772C0.0869141 23.8907 2.14329 26 4.69121 26H21.4826C24.0305 26 26.0869 23.8907 26.0869 21.2772V4.7228C26.0869 2.1093 24.0305 0 21.4826 0ZM24.9909 20.8438C25.0039 23.074 23.2433 24.8883 21.0723 24.8883H5.10232C2.93545 24.8883 1.17076 23.0781 1.17076 20.8555V5.14366C1.17076 2.92102 2.93545 1.1109 5.10232 1.1109H21.0593C23.2303 1.1109 24.9909 2.91685 24.9909 5.14366V20.8438Z" fill="#FF26BE"/>
<path d="M10.3663 12.1666L13.4009 18.1437C13.4562 18.2345 13.4229 18.3212 13.3368 18.3212H11.4494C11.3316 18.3212 11.2763 18.2912 11.2251 18.1778C10.5321 16.7111 9.82442 15.2443 9.10051 13.6684H9.0802C8.42778 15.156 7.7128 16.7244 7.01895 18.1912C6.96939 18.2778 6.91414 18.312 6.82477 18.312H5.03813C4.92845 18.312 4.92033 18.2212 4.97557 18.1562L7.94192 12.3566L5.07307 6.48875C5.00482 6.39791 5.07307 6.33207 5.13563 6.33207H6.99782C7.10751 6.33207 7.15057 6.35457 7.19282 6.45291C7.87773 7.92051 8.56752 9.4306 9.21994 10.9107H9.24025C9.87074 9.44394 10.5654 7.92051 11.2333 6.46625L11.235 6.46335C11.2892 6.37421 11.3229 6.31874 11.4282 6.31874H13.171C13.2596 6.31874 13.2937 6.38874 13.2393 6.47541L10.3663 12.1666Z" fill="#FFD9F2"/>
<path fill-rule="evenodd" clip-rule="evenodd" d="M13.9331 13.9767C13.9331 11.3899 15.6092 9.36643 18.275 9.36643C18.5033 9.36643 18.6219 9.36643 18.838 9.38893V6.44625C18.838 6.37624 18.8925 6.33291 18.9477 6.33291H20.6571C20.7457 6.33291 20.7676 6.36707 20.7676 6.41958V16.6244C20.7676 16.9236 20.7676 17.3011 20.8229 17.7086C20.8229 17.7786 20.801 17.7995 20.7343 17.8353C19.8244 18.2778 18.8721 18.4779 17.9622 18.4779C15.6092 18.4904 13.9331 17.0019 13.9331 13.9767ZM18.2116 11.0207C18.4708 11.0207 18.6901 11.069 18.8388 11.1332V16.6336C18.6357 16.7244 18.3513 16.7544 18.0938 16.7544C16.8661 16.7544 15.8936 15.9344 15.8936 13.8901C15.8936 12.1008 16.8458 11.0207 18.2116 11.0207Z" fill="#FFD9F2"/>
<path fill-rule="evenodd" clip-rule="evenodd" d="M24.9909 20.8438C25.0039 23.074 23.2433 24.8883 21.0723 24.8883H5.10232C2.93545 24.8883 1.17076 23.0781 1.17076 20.8555V5.14366C1.17076 2.92102 2.93545 1.1109 5.10232 1.1109H21.0593C23.2303 1.1109 24.9909 2.91685 24.9909 5.14366V20.8438ZM13.4009 18.1437L10.3663 12.1666L13.2393 6.47541C13.2937 6.38874 13.2596 6.31874 13.171 6.31874H11.4282C11.3229 6.31874 11.2892 6.37421 11.235 6.46335L11.2333 6.46625C10.5654 7.92051 9.87074 9.44394 9.24025 10.9107H9.21994C8.56752 9.4306 7.87773 7.92051 7.19282 6.45291C7.15057 6.35457 7.10751 6.33207 6.99782 6.33207H5.13563C5.07307 6.33207 5.00482 6.39791 5.07307 6.48875L7.94192 12.3566L4.97557 18.1562C4.92033 18.2212 4.92845 18.312 5.03813 18.312H6.82477C6.91414 18.312 6.96939 18.2778 7.01895 18.1912C7.7128 16.7244 8.42778 15.156 9.0802 13.6684H9.10051C9.82442 15.2443 10.5321 16.7111 11.2251 18.1778C11.2763 18.2912 11.3316 18.3212 11.4494 18.3212H13.3368C13.4229 18.3212 13.4562 18.2345 13.4009 18.1437ZM18.275 9.36643C15.6092 9.36643 13.9331 11.3899 13.9331 13.9767C13.9331 17.0019 15.6092 18.4904 17.9622 18.4779C18.8721 18.4779 19.8244 18.2778 20.7343 17.8353C20.801 17.7995 20.8229 17.7786 20.8229 17.7086C20.7676 17.3011 20.7676 16.9236 20.7676 16.6244V6.41958C20.7676 6.36707 20.7457 6.33291 20.6571 6.33291H18.9477C18.8925 6.33291 18.838 6.37624 18.838 6.44625V9.38893C18.6219 9.36643 18.5033 9.36643 18.275 9.36643Z" fill="#2E001F"/>
<path d="M18.8388 11.1332C18.6901 11.069 18.4708 11.0207 18.2116 11.0207C16.8458 11.0207 15.8936 12.1008 15.8936 13.8901C15.8936 15.9344 16.8661 16.7544 18.0938 16.7544C18.3513 16.7544 18.6357 16.7244 18.8388 16.6336V11.1332Z" fill="#2E001F"/>
</svg>
