<svg width="27" height="26" viewBox="0 0 27 26" fill="none" xmlns="http://www.w3.org/2000/svg">
<path d="M0.043457 2.88889C0.043457 1.2935 1.33696 0 2.93235 0H23.1546C24.75 0 26.0435 1.2935 26.0435 2.88889V23.1111C26.0435 24.7065 24.75 26 23.1546 26H2.93235C1.33696 26 0.043457 24.7065 0.043457 23.1111V2.88889Z" fill="#03A9F4"/>
<path d="M10.1663 9.51459H8.72046V12.7169H10.1454C10.5405 12.7169 10.846 12.5876 11.0626 12.3291C11.2793 12.0705 11.3869 11.6943 11.3869 11.2003C11.3869 10.6875 11.2764 10.2801 11.0554 9.97681C10.8344 9.67348 10.5376 9.51964 10.1663 9.51459Z" fill="#020F16"/>
<path d="M2.21021 2.16663V23.8333H23.8769V2.16663H2.21021ZM12.5849 13.5698C11.9884 14.1533 11.1607 14.4444 10.1026 14.4444H8.72032V18.0555H6.64682V7.78624H10.1453C11.1607 7.78624 11.971 8.10185 12.5748 8.73163C13.1786 9.3614 13.4812 10.1797 13.4812 11.1857C13.4812 12.1918 13.1822 12.9862 12.5849 13.5698ZM19.3139 17.576C18.8018 17.9898 18.1287 18.1963 17.2967 18.1963C16.737 18.1963 16.243 18.0873 15.8154 17.8685C15.3879 17.6496 15.052 17.3448 14.8101 16.9548C14.5681 16.5648 14.4468 16.1438 14.4468 15.6924H16.3441C16.3542 16.0398 16.4344 16.3012 16.5875 16.4753C16.7406 16.6493 16.9905 16.736 17.3386 16.736C17.8745 16.736 18.1424 16.4941 18.1424 16.0095C18.1424 15.8405 18.0615 15.6837 17.899 15.5407C17.7365 15.3977 17.3769 15.2042 16.8172 14.9593C15.9945 14.6257 15.429 14.2805 15.1207 13.9222C14.8123 13.564 14.6584 13.1206 14.6584 12.589C14.6584 11.921 14.8996 11.3699 15.3814 10.9351C15.8631 10.5003 16.5023 10.283 17.296 10.283C18.1323 10.283 18.8025 10.4996 19.3059 10.9315C19.8093 11.3634 20.0606 11.9448 20.0606 12.6735H18.0644C18.0644 12.0531 17.8066 11.7426 17.2888 11.7426C17.0772 11.7426 16.9038 11.8083 16.7666 11.9397C16.6294 12.0712 16.5622 12.2553 16.5622 12.4901C16.5622 12.6591 16.6373 12.8086 16.7883 12.9378C16.9392 13.0671 17.2931 13.252 17.8535 13.4918C18.6675 13.793 19.2417 14.1281 19.5782 14.4971C19.9148 14.8662 20.0823 15.345 20.0823 15.9322C20.0823 16.6147 19.8259 17.1621 19.3139 17.576Z" fill="#020F16"/>
</svg>
