<svg width="26" height="26" viewBox="0 0 26 26" fill="none" xmlns="http://www.w3.org/2000/svg">
<path d="M0 2.88889C0 1.2935 1.2935 0 2.88889 0H23.1111C24.7065 0 26 1.2935 26 2.88889V23.1111C26 24.7065 24.7065 26 23.1111 26H2.88889C1.2935 26 0 24.7065 0 23.1111V2.88889Z" fill="#FF5722"/>
<path d="M2.1665 2.16669V23.8334H23.8332V2.16669H2.1665ZM12.7767 18.0556L12.2263 15.9539H9.39812L8.84851 18.0556H6.65512L9.86395 7.7863H11.7612L14.9917 18.0556H12.7767ZM17.9471 18.0556H15.9443V10.4246H17.9471V18.0556ZM17.7318 9.21124C17.5361 9.41347 17.2725 9.51458 16.9381 9.51458C16.6037 9.51458 16.3401 9.41347 16.1444 9.21124C15.9487 9.00902 15.8519 8.7548 15.8519 8.4493C15.8519 8.13874 15.9508 7.88524 16.148 7.68735C16.3452 7.48946 16.6095 7.39124 16.9381 7.39124C17.2667 7.39124 17.5303 7.49019 17.7282 7.68735C17.9261 7.88452 18.0243 8.13874 18.0243 8.4493C18.0243 8.7548 17.9268 9.00902 17.7318 9.21124Z" fill="#1C0802"/>
<path d="M9.85083 14.2257H11.7691L10.8099 10.5655L9.85083 14.2257Z" fill="#1C0802"/>
</svg>
