<svg width="17" height="26" viewBox="0 0 17 26" fill="none" xmlns="http://www.w3.org/2000/svg">
<path d="M12.7174 17.3334C15.0586 17.3334 16.9565 15.3933 16.9565 13C16.9565 10.6068 15.0586 8.66669 12.7174 8.66669C10.3762 8.66669 8.47827 10.6068 8.47827 13C8.47827 15.3933 10.3762 17.3334 12.7174 17.3334Z" fill="#19BCFE"/>
<path fill-rule="evenodd" clip-rule="evenodd" d="M4.23913 26C6.58034 26 8.47826 24.0599 8.47826 21.6666C8.47826 21.0133 8.47826 19.5689 8.47826 17.3333C6.57387 17.3333 5.16083 17.3333 4.23913 17.3333C1.89792 17.3333 0 19.2734 0 21.6666C0 24.0599 1.89792 26 4.23913 26Z" fill="#09CF83"/>
<path fill-rule="evenodd" clip-rule="evenodd" d="M4.23913 17.3334H8.47826V8.66669C6.43258 8.66669 5.01953 8.66669 4.23913 8.66669C1.89792 8.66669 0 10.6068 0 13C0 15.3933 1.89792 17.3334 4.23913 17.3334Z" fill="#A259FF"/>
<path fill-rule="evenodd" clip-rule="evenodd" d="M4.23913 8.66667H8.47826V0C6.43258 0 5.01953 0 4.23913 0C1.89792 0 0 1.9401 0 4.33333C0 6.72657 1.89792 8.66667 4.23913 8.66667Z" fill="#F24E1E"/>
<path fill-rule="evenodd" clip-rule="evenodd" d="M12.7174 8.66667H8.47827V0H12.7174C15.0586 0 16.9565 1.9401 16.9565 4.33333C16.9565 6.72657 15.0586 8.66667 12.7174 8.66667Z" fill="#FF7262"/>
</svg>
